<mxfile host="app.diagrams.net" agent="Mozilla/5.0 (Windows NT 10.0; Win64; x64) AppleWebKit/537.36 (KHTML, like Gecko) Chrome/131.0.0.0 Safari/537.36 Edg/131.0.0.0" version="25.0.3">
  <diagram name="Page-1" id="Ri_1I_NbojaRylq7Qz1U">
    <mxGraphModel dx="1753" dy="1598" grid="1" gridSize="10" guides="1" tooltips="1" connect="1" arrows="1" fold="1" page="1" pageScale="1" pageWidth="850" pageHeight="1100" math="0" shadow="0">
      <root>
        <mxCell id="0" />
        <mxCell id="1" parent="0" />
        <mxCell id="CR9fjoYsBnIUi-pqQ0-4-1" value="" style="edgeStyle=orthogonalEdgeStyle;rounded=0;orthogonalLoop=1;jettySize=auto;html=1;" edge="1" parent="1" source="CR9fjoYsBnIUi-pqQ0-4-2" target="CR9fjoYsBnIUi-pqQ0-4-4">
          <mxGeometry relative="1" as="geometry" />
        </mxCell>
        <mxCell id="CR9fjoYsBnIUi-pqQ0-4-2" value="&lt;font data-font-src=&quot;https://fonts.googleapis.com/css?family=Sarabun&quot; face=&quot;Sarabun&quot;&gt;Start&lt;/font&gt;" style="ellipse;whiteSpace=wrap;html=1;" vertex="1" parent="1">
          <mxGeometry x="-664.0000000000001" y="-1040" width="130" height="30" as="geometry" />
        </mxCell>
        <mxCell id="CR9fjoYsBnIUi-pqQ0-4-3" value="" style="edgeStyle=orthogonalEdgeStyle;rounded=0;orthogonalLoop=1;jettySize=auto;html=1;" edge="1" parent="1" source="CR9fjoYsBnIUi-pqQ0-4-4" target="CR9fjoYsBnIUi-pqQ0-4-7">
          <mxGeometry relative="1" as="geometry" />
        </mxCell>
        <mxCell id="CR9fjoYsBnIUi-pqQ0-4-4" value="เปิดไฟล์&amp;nbsp;a15-1.txt&amp;nbsp;&lt;span style=&quot;color: rgba(0, 0, 0, 0); font-family: monospace; font-size: 0px; text-align: start; text-wrap-mode: nowrap;&quot;&gt;%3CmxGraphModel%3E%3Croot%3E%3CmxCell%20id%3D%220%22%2F%3E%3CmxCell%20id%3D%221%22%20parent%3D%220%22%2F%3E%3CmxCell%20id%3D%222%22%20value%3D%22%E0%B8%81%E0%B8%B3%E0%B8%AB%E0%B8%99%E0%B8%94%E0%B8%95%E0%B8%B1%E0%B8%A7%E0%B9%81%E0%B8%9B%E0%B8%A3%20arr%22%20style%3D%22rounded%3D0%3BwhiteSpace%3Dwrap%3Bhtml%3D1%3B%22%20vertex%3D%221%22%20parent%3D%221%22%3E%3CmxGeometry%20x%3D%22-680%22%20y%3D%22-980%22%20width%3D%22160%22%20height%3D%2240%22%20as%3D%22geometry%22%2F%3E%3C%2FmxCell%3E%3C%2Froot%3E%3C%2FmxGraphModel%3E&lt;/span&gt;" style="rounded=0;whiteSpace=wrap;html=1;" vertex="1" parent="1">
          <mxGeometry x="-680" y="-980" width="160" height="40" as="geometry" />
        </mxCell>
        <mxCell id="CR9fjoYsBnIUi-pqQ0-4-5" value="" style="edgeStyle=orthogonalEdgeStyle;rounded=0;orthogonalLoop=1;jettySize=auto;html=1;" edge="1" parent="1" target="CR9fjoYsBnIUi-pqQ0-4-9">
          <mxGeometry relative="1" as="geometry">
            <mxPoint x="-598.5" y="-760" as="sourcePoint" />
          </mxGeometry>
        </mxCell>
        <mxCell id="CR9fjoYsBnIUi-pqQ0-4-6" value="" style="edgeStyle=orthogonalEdgeStyle;rounded=0;orthogonalLoop=1;jettySize=auto;html=1;" edge="1" parent="1" source="CR9fjoYsBnIUi-pqQ0-4-7" target="CR9fjoYsBnIUi-pqQ0-4-17">
          <mxGeometry relative="1" as="geometry" />
        </mxCell>
        <mxCell id="CR9fjoYsBnIUi-pqQ0-4-7" value="เปิดได้หรือไม่" style="rhombus;whiteSpace=wrap;html=1;" vertex="1" parent="1">
          <mxGeometry x="-664" y="-910" width="128" height="80" as="geometry" />
        </mxCell>
        <mxCell id="CR9fjoYsBnIUi-pqQ0-4-8" value="" style="edgeStyle=orthogonalEdgeStyle;rounded=0;orthogonalLoop=1;jettySize=auto;html=1;" edge="1" parent="1" source="CR9fjoYsBnIUi-pqQ0-4-9" target="CR9fjoYsBnIUi-pqQ0-4-11">
          <mxGeometry relative="1" as="geometry" />
        </mxCell>
        <mxCell id="CR9fjoYsBnIUi-pqQ0-4-9" value="กำหนดตัวแปร num 2" style="rounded=0;whiteSpace=wrap;html=1;" vertex="1" parent="1">
          <mxGeometry x="-678.5" y="-730" width="160" height="40" as="geometry" />
        </mxCell>
        <mxCell id="CR9fjoYsBnIUi-pqQ0-4-10" value="" style="edgeStyle=orthogonalEdgeStyle;rounded=0;orthogonalLoop=1;jettySize=auto;html=1;" edge="1" parent="1" source="CR9fjoYsBnIUi-pqQ0-4-11" target="CR9fjoYsBnIUi-pqQ0-4-13">
          <mxGeometry relative="1" as="geometry" />
        </mxCell>
        <mxCell id="CR9fjoYsBnIUi-pqQ0-4-11" value="อ่านไฟล์&amp;nbsp;&amp;nbsp;a15-2.txt&amp;nbsp;" style="rounded=0;whiteSpace=wrap;html=1;" vertex="1" parent="1">
          <mxGeometry x="-678.5" y="-660" width="160" height="40" as="geometry" />
        </mxCell>
        <mxCell id="CR9fjoYsBnIUi-pqQ0-4-24" value="" style="edgeStyle=orthogonalEdgeStyle;rounded=0;orthogonalLoop=1;jettySize=auto;html=1;" edge="1" parent="1" source="CR9fjoYsBnIUi-pqQ0-4-13" target="CR9fjoYsBnIUi-pqQ0-4-23">
          <mxGeometry relative="1" as="geometry" />
        </mxCell>
        <mxCell id="CR9fjoYsBnIUi-pqQ0-4-13" value="เอาข้อความใน&amp;nbsp;&amp;nbsp;a15-1.txt&amp;nbsp; ใส่ num 2" style="rounded=0;whiteSpace=wrap;html=1;" vertex="1" parent="1">
          <mxGeometry x="-678.5" y="-590" width="160" height="40" as="geometry" />
        </mxCell>
        <mxCell id="CR9fjoYsBnIUi-pqQ0-4-14" value="" style="edgeStyle=orthogonalEdgeStyle;rounded=0;orthogonalLoop=1;jettySize=auto;html=1;" edge="1" parent="1" target="CR9fjoYsBnIUi-pqQ0-4-20">
          <mxGeometry relative="1" as="geometry">
            <mxPoint x="-598.5" y="-410" as="sourcePoint" />
          </mxGeometry>
        </mxCell>
        <mxCell id="CR9fjoYsBnIUi-pqQ0-4-27" style="edgeStyle=orthogonalEdgeStyle;rounded=0;orthogonalLoop=1;jettySize=auto;html=1;entryX=1;entryY=0.5;entryDx=0;entryDy=0;" edge="1" parent="1" source="CR9fjoYsBnIUi-pqQ0-4-17" target="CR9fjoYsBnIUi-pqQ0-4-20">
          <mxGeometry relative="1" as="geometry">
            <Array as="points">
              <mxPoint x="-400" y="-365" />
            </Array>
          </mxGeometry>
        </mxCell>
        <mxCell id="CR9fjoYsBnIUi-pqQ0-4-17" value="Err" style="rounded=0;whiteSpace=wrap;html=1;shape=parallelogram;perimeter=parallelogramPerimeter;fixedSize=1;" vertex="1" parent="1">
          <mxGeometry x="-470" y="-890" width="160" height="40" as="geometry" />
        </mxCell>
        <mxCell id="CR9fjoYsBnIUi-pqQ0-4-18" value="&lt;font data-font-src=&quot;https://fonts.googleapis.com/css?family=Sarabun&quot; face=&quot;Sarabun&quot;&gt;Start&lt;/font&gt;" style="ellipse;whiteSpace=wrap;html=1;" vertex="1" parent="1">
          <mxGeometry x="-663.5000000000001" y="-320" width="130" height="30" as="geometry" />
        </mxCell>
        <mxCell id="CR9fjoYsBnIUi-pqQ0-4-19" value="" style="edgeStyle=orthogonalEdgeStyle;rounded=0;orthogonalLoop=1;jettySize=auto;html=1;" edge="1" parent="1" source="CR9fjoYsBnIUi-pqQ0-4-20">
          <mxGeometry relative="1" as="geometry">
            <mxPoint x="-598.5000000000001" y="-320" as="targetPoint" />
          </mxGeometry>
        </mxCell>
        <mxCell id="CR9fjoYsBnIUi-pqQ0-4-20" value="" style="ellipse;whiteSpace=wrap;html=1;aspect=fixed;" vertex="1" parent="1">
          <mxGeometry x="-613.5" y="-380" width="30" height="30" as="geometry" />
        </mxCell>
        <mxCell id="CR9fjoYsBnIUi-pqQ0-4-21" value="" style="edgeStyle=orthogonalEdgeStyle;rounded=0;orthogonalLoop=1;jettySize=auto;html=1;" edge="1" target="CR9fjoYsBnIUi-pqQ0-4-22" parent="1">
          <mxGeometry relative="1" as="geometry">
            <mxPoint x="-599" y="-830" as="sourcePoint" />
          </mxGeometry>
        </mxCell>
        <mxCell id="CR9fjoYsBnIUi-pqQ0-4-22" value="กำหนดตัวแปร num 1" style="rounded=0;whiteSpace=wrap;html=1;" vertex="1" parent="1">
          <mxGeometry x="-679" y="-800" width="160" height="40" as="geometry" />
        </mxCell>
        <mxCell id="CR9fjoYsBnIUi-pqQ0-4-26" value="" style="edgeStyle=orthogonalEdgeStyle;rounded=0;orthogonalLoop=1;jettySize=auto;html=1;" edge="1" parent="1" source="CR9fjoYsBnIUi-pqQ0-4-23" target="CR9fjoYsBnIUi-pqQ0-4-25">
          <mxGeometry relative="1" as="geometry" />
        </mxCell>
        <mxCell id="CR9fjoYsBnIUi-pqQ0-4-23" value="รับค่า num 2" style="rounded=0;whiteSpace=wrap;html=1;shape=parallelogram;perimeter=parallelogramPerimeter;fixedSize=1;" vertex="1" parent="1">
          <mxGeometry x="-678.5" y="-520" width="160" height="40" as="geometry" />
        </mxCell>
        <mxCell id="CR9fjoYsBnIUi-pqQ0-4-25" value="ปริ้น num 1 + num 2" style="rounded=0;whiteSpace=wrap;html=1;shape=parallelogram;perimeter=parallelogramPerimeter;fixedSize=1;" vertex="1" parent="1">
          <mxGeometry x="-678.5" y="-450" width="160" height="40" as="geometry" />
        </mxCell>
      </root>
    </mxGraphModel>
  </diagram>
</mxfile>
